<mxfile host="Electron" modified="2024-06-06T10:42:13.384Z" agent="Mozilla/5.0 (Macintosh; Intel Mac OS X 10_15_7) AppleWebKit/537.36 (KHTML, like Gecko) draw.io/24.4.0 Chrome/120.0.6099.109 Electron/28.1.0 Safari/537.36" etag="_bS8MaZ8HKcvhmmhUktn" version="24.4.0" type="device">
  <diagram id="R2lEEEUBdFMjLlhIrx00" name="Page-1">
    <mxGraphModel dx="1237" dy="959" grid="1" gridSize="10" guides="1" tooltips="1" connect="1" arrows="1" fold="1" page="1" pageScale="1" pageWidth="850" pageHeight="1100" math="0" shadow="0" extFonts="Permanent Marker^https://fonts.googleapis.com/css?family=Permanent+Marker">
      <root>
        <mxCell id="0" />
        <mxCell id="1" parent="0" />
        <mxCell id="hbp8-8lJkHPTpPMItPzK-110" value="real_estate" style="shape=table;startSize=30;container=1;collapsible=1;childLayout=tableLayout;fixedRows=1;rowLines=0;fontStyle=1;align=center;resizeLast=1;verticalAlign=middle;fillColor=#bac8d3;strokeColor=#23445d;" vertex="1" parent="1">
          <mxGeometry x="40" y="40" width="355" height="819.9999999999999" as="geometry">
            <mxRectangle x="110" y="300" width="100" height="30" as="alternateBounds" />
          </mxGeometry>
        </mxCell>
        <mxCell id="hbp8-8lJkHPTpPMItPzK-111" value="" style="shape=partialRectangle;collapsible=0;dropTarget=0;pointerEvents=0;fillColor=none;points=[[0,0.5],[1,0.5]];portConstraint=eastwest;top=0;left=0;right=0;bottom=1;" vertex="1" parent="hbp8-8lJkHPTpPMItPzK-110">
          <mxGeometry y="30" width="355" height="30" as="geometry" />
        </mxCell>
        <mxCell id="hbp8-8lJkHPTpPMItPzK-112" value="PK" style="shape=partialRectangle;overflow=hidden;connectable=0;top=1;left=1;bottom=1;right=1;fontStyle=5;strokeColor=default;align=left;verticalAlign=middle;spacingLeft=6;fontFamily=Helvetica;fontSize=12;fontColor=default;fillColor=default;labelBackgroundColor=default;" vertex="1" parent="hbp8-8lJkHPTpPMItPzK-111">
          <mxGeometry width="30" height="30" as="geometry">
            <mxRectangle width="30" height="30" as="alternateBounds" />
          </mxGeometry>
        </mxCell>
        <mxCell id="hbp8-8lJkHPTpPMItPzK-113" value="id" style="shape=partialRectangle;overflow=hidden;connectable=0;top=1;left=1;bottom=1;right=1;align=center;spacingLeft=6;fontStyle=5;" vertex="1" parent="hbp8-8lJkHPTpPMItPzK-111">
          <mxGeometry x="30" width="325" height="30" as="geometry">
            <mxRectangle width="325" height="30" as="alternateBounds" />
          </mxGeometry>
        </mxCell>
        <mxCell id="hbp8-8lJkHPTpPMItPzK-114" style="shape=partialRectangle;collapsible=0;dropTarget=0;pointerEvents=0;fillColor=none;points=[[0,0.5],[1,0.5]];portConstraint=eastwest;top=0;left=0;right=0;bottom=0;" vertex="1" parent="hbp8-8lJkHPTpPMItPzK-110">
          <mxGeometry y="60" width="355" height="30" as="geometry" />
        </mxCell>
        <mxCell id="hbp8-8lJkHPTpPMItPzK-115" style="shape=partialRectangle;overflow=hidden;connectable=0;top=1;left=1;bottom=1;right=1;shadow=0;strokeWidth=1;align=left;verticalAlign=middle;spacingLeft=6;fontFamily=Helvetica;fontSize=12;" vertex="1" parent="hbp8-8lJkHPTpPMItPzK-114">
          <mxGeometry width="30" height="30" as="geometry">
            <mxRectangle width="30" height="30" as="alternateBounds" />
          </mxGeometry>
        </mxCell>
        <mxCell id="hbp8-8lJkHPTpPMItPzK-116" value="beop_jeong_dong" style="shape=partialRectangle;overflow=hidden;connectable=0;top=1;left=1;bottom=1;right=1;align=center;spacingLeft=6;shadow=0;strokeWidth=1;perimeterSpacing=0;verticalAlign=middle;fontFamily=Helvetica;fontSize=12;fontStyle=0;" vertex="1" parent="hbp8-8lJkHPTpPMItPzK-114">
          <mxGeometry x="30" width="325" height="30" as="geometry">
            <mxRectangle width="325" height="30" as="alternateBounds" />
          </mxGeometry>
        </mxCell>
        <mxCell id="hbp8-8lJkHPTpPMItPzK-117" style="shape=partialRectangle;collapsible=0;dropTarget=0;pointerEvents=0;fillColor=none;points=[[0,0.5],[1,0.5]];portConstraint=eastwest;top=0;left=0;right=0;bottom=0;" vertex="1" parent="hbp8-8lJkHPTpPMItPzK-110">
          <mxGeometry y="90" width="355" height="30" as="geometry" />
        </mxCell>
        <mxCell id="hbp8-8lJkHPTpPMItPzK-118" style="shape=partialRectangle;overflow=hidden;connectable=0;top=1;left=1;bottom=1;right=1;shadow=0;strokeWidth=1;align=left;verticalAlign=middle;spacingLeft=6;fontFamily=Helvetica;fontSize=12;" vertex="1" parent="hbp8-8lJkHPTpPMItPzK-117">
          <mxGeometry width="30" height="30" as="geometry">
            <mxRectangle width="30" height="30" as="alternateBounds" />
          </mxGeometry>
        </mxCell>
        <mxCell id="hbp8-8lJkHPTpPMItPzK-119" value="request_renewal_right" style="shape=partialRectangle;overflow=hidden;connectable=0;top=1;left=1;bottom=1;right=1;align=center;spacingLeft=6;strokeWidth=1;shadow=0;verticalAlign=middle;fontFamily=Helvetica;fontSize=12;fontStyle=0;" vertex="1" parent="hbp8-8lJkHPTpPMItPzK-117">
          <mxGeometry x="30" width="325" height="30" as="geometry">
            <mxRectangle width="325" height="30" as="alternateBounds" />
          </mxGeometry>
        </mxCell>
        <mxCell id="hbp8-8lJkHPTpPMItPzK-120" style="shape=partialRectangle;collapsible=0;dropTarget=0;pointerEvents=0;fillColor=none;points=[[0,0.5],[1,0.5]];portConstraint=eastwest;top=0;left=0;right=0;bottom=0;" vertex="1" parent="hbp8-8lJkHPTpPMItPzK-110">
          <mxGeometry y="120" width="355" height="30" as="geometry" />
        </mxCell>
        <mxCell id="hbp8-8lJkHPTpPMItPzK-121" style="shape=partialRectangle;overflow=hidden;connectable=0;top=1;left=1;bottom=1;right=1;" vertex="1" parent="hbp8-8lJkHPTpPMItPzK-120">
          <mxGeometry width="30" height="30" as="geometry">
            <mxRectangle width="30" height="30" as="alternateBounds" />
          </mxGeometry>
        </mxCell>
        <mxCell id="hbp8-8lJkHPTpPMItPzK-122" value="construct_year" style="shape=partialRectangle;overflow=hidden;connectable=0;top=1;left=1;bottom=1;right=1;align=center;spacingLeft=6;shadow=0;strokeWidth=1;verticalAlign=middle;fontFamily=Helvetica;fontSize=12;fontStyle=0;" vertex="1" parent="hbp8-8lJkHPTpPMItPzK-120">
          <mxGeometry x="30" width="325" height="30" as="geometry">
            <mxRectangle width="325" height="30" as="alternateBounds" />
          </mxGeometry>
        </mxCell>
        <mxCell id="hbp8-8lJkHPTpPMItPzK-123" style="shape=partialRectangle;collapsible=0;dropTarget=0;pointerEvents=0;fillColor=none;points=[[0,0.5],[1,0.5]];portConstraint=eastwest;top=0;left=0;right=0;bottom=0;" vertex="1" parent="hbp8-8lJkHPTpPMItPzK-110">
          <mxGeometry y="150" width="355" height="30" as="geometry" />
        </mxCell>
        <mxCell id="hbp8-8lJkHPTpPMItPzK-124" style="shape=partialRectangle;overflow=hidden;connectable=0;top=1;left=1;bottom=1;right=1;" vertex="1" parent="hbp8-8lJkHPTpPMItPzK-123">
          <mxGeometry width="30" height="30" as="geometry">
            <mxRectangle width="30" height="30" as="alternateBounds" />
          </mxGeometry>
        </mxCell>
        <mxCell id="hbp8-8lJkHPTpPMItPzK-125" value="contract_type" style="shape=partialRectangle;overflow=hidden;connectable=0;top=1;left=1;bottom=1;right=1;align=center;spacingLeft=6;shadow=0;strokeWidth=1;verticalAlign=middle;fontFamily=Helvetica;fontSize=12;fontStyle=0;" vertex="1" parent="hbp8-8lJkHPTpPMItPzK-123">
          <mxGeometry x="30" width="325" height="30" as="geometry">
            <mxRectangle width="325" height="30" as="alternateBounds" />
          </mxGeometry>
        </mxCell>
        <mxCell id="hbp8-8lJkHPTpPMItPzK-126" style="shape=partialRectangle;collapsible=0;dropTarget=0;pointerEvents=0;fillColor=none;points=[[0,0.5],[1,0.5]];portConstraint=eastwest;top=0;left=0;right=0;bottom=0;" vertex="1" parent="hbp8-8lJkHPTpPMItPzK-110">
          <mxGeometry y="180" width="355" height="30" as="geometry" />
        </mxCell>
        <mxCell id="hbp8-8lJkHPTpPMItPzK-127" style="shape=partialRectangle;overflow=hidden;connectable=0;top=1;left=1;bottom=1;right=1;" vertex="1" parent="hbp8-8lJkHPTpPMItPzK-126">
          <mxGeometry width="30" height="30" as="geometry">
            <mxRectangle width="30" height="30" as="alternateBounds" />
          </mxGeometry>
        </mxCell>
        <mxCell id="hbp8-8lJkHPTpPMItPzK-128" value="contract_period" style="shape=partialRectangle;overflow=hidden;connectable=0;top=1;left=1;bottom=1;right=1;align=center;spacingLeft=6;shadow=0;strokeWidth=1;verticalAlign=middle;fontFamily=Helvetica;fontSize=12;fontStyle=0;" vertex="1" parent="hbp8-8lJkHPTpPMItPzK-126">
          <mxGeometry x="30" width="325" height="30" as="geometry">
            <mxRectangle width="325" height="30" as="alternateBounds" />
          </mxGeometry>
        </mxCell>
        <mxCell id="hbp8-8lJkHPTpPMItPzK-129" style="shape=partialRectangle;collapsible=0;dropTarget=0;pointerEvents=0;fillColor=none;points=[[0,0.5],[1,0.5]];portConstraint=eastwest;top=0;left=0;right=0;bottom=0;" vertex="1" parent="hbp8-8lJkHPTpPMItPzK-110">
          <mxGeometry y="210" width="355" height="30" as="geometry" />
        </mxCell>
        <mxCell id="hbp8-8lJkHPTpPMItPzK-130" style="shape=partialRectangle;overflow=hidden;connectable=0;top=1;left=1;bottom=1;right=1;" vertex="1" parent="hbp8-8lJkHPTpPMItPzK-129">
          <mxGeometry width="30" height="30" as="geometry">
            <mxRectangle width="30" height="30" as="alternateBounds" />
          </mxGeometry>
        </mxCell>
        <mxCell id="hbp8-8lJkHPTpPMItPzK-131" value="contract_year" style="shape=partialRectangle;overflow=hidden;connectable=0;top=1;left=1;bottom=1;right=1;align=center;spacingLeft=6;shadow=0;strokeWidth=1;verticalAlign=middle;fontFamily=Helvetica;fontSize=12;fontStyle=0;" vertex="1" parent="hbp8-8lJkHPTpPMItPzK-129">
          <mxGeometry x="30" width="325" height="30" as="geometry">
            <mxRectangle width="325" height="30" as="alternateBounds" />
          </mxGeometry>
        </mxCell>
        <mxCell id="hbp8-8lJkHPTpPMItPzK-132" style="shape=partialRectangle;collapsible=0;dropTarget=0;pointerEvents=0;fillColor=none;points=[[0,0.5],[1,0.5]];portConstraint=eastwest;top=0;left=0;right=0;bottom=0;" vertex="1" parent="hbp8-8lJkHPTpPMItPzK-110">
          <mxGeometry y="240" width="355" height="30" as="geometry" />
        </mxCell>
        <mxCell id="hbp8-8lJkHPTpPMItPzK-133" style="shape=partialRectangle;overflow=hidden;connectable=0;top=1;left=1;bottom=1;right=1;" vertex="1" parent="hbp8-8lJkHPTpPMItPzK-132">
          <mxGeometry width="30" height="30" as="geometry">
            <mxRectangle width="30" height="30" as="alternateBounds" />
          </mxGeometry>
        </mxCell>
        <mxCell id="hbp8-8lJkHPTpPMItPzK-134" value="contract_month" style="shape=partialRectangle;overflow=hidden;connectable=0;top=1;left=1;bottom=1;right=1;align=center;spacingLeft=6;shadow=0;strokeWidth=1;verticalAlign=middle;fontFamily=Helvetica;fontSize=12;fontStyle=0;" vertex="1" parent="hbp8-8lJkHPTpPMItPzK-132">
          <mxGeometry x="30" width="325" height="30" as="geometry">
            <mxRectangle width="325" height="30" as="alternateBounds" />
          </mxGeometry>
        </mxCell>
        <mxCell id="hbp8-8lJkHPTpPMItPzK-135" style="shape=partialRectangle;collapsible=0;dropTarget=0;pointerEvents=0;fillColor=none;points=[[0,0.5],[1,0.5]];portConstraint=eastwest;top=0;left=0;right=0;bottom=0;" vertex="1" parent="hbp8-8lJkHPTpPMItPzK-110">
          <mxGeometry y="270" width="355" height="30" as="geometry" />
        </mxCell>
        <mxCell id="hbp8-8lJkHPTpPMItPzK-136" style="shape=partialRectangle;overflow=hidden;connectable=0;top=1;left=1;bottom=1;right=1;" vertex="1" parent="hbp8-8lJkHPTpPMItPzK-135">
          <mxGeometry width="30" height="30" as="geometry">
            <mxRectangle width="30" height="30" as="alternateBounds" />
          </mxGeometry>
        </mxCell>
        <mxCell id="hbp8-8lJkHPTpPMItPzK-137" value="contract_day" style="shape=partialRectangle;overflow=hidden;connectable=0;top=1;left=1;bottom=1;right=1;align=center;spacingLeft=6;shadow=0;strokeWidth=1;verticalAlign=middle;fontFamily=Helvetica;fontSize=12;fontStyle=0;" vertex="1" parent="hbp8-8lJkHPTpPMItPzK-135">
          <mxGeometry x="30" width="325" height="30" as="geometry">
            <mxRectangle width="325" height="30" as="alternateBounds" />
          </mxGeometry>
        </mxCell>
        <mxCell id="hbp8-8lJkHPTpPMItPzK-138" style="shape=partialRectangle;collapsible=0;dropTarget=0;pointerEvents=0;fillColor=none;points=[[0,0.5],[1,0.5]];portConstraint=eastwest;top=0;left=0;right=0;bottom=0;" vertex="1" parent="hbp8-8lJkHPTpPMItPzK-110">
          <mxGeometry y="300" width="355" height="30" as="geometry" />
        </mxCell>
        <mxCell id="hbp8-8lJkHPTpPMItPzK-139" style="shape=partialRectangle;overflow=hidden;connectable=0;top=1;left=1;bottom=1;right=1;" vertex="1" parent="hbp8-8lJkHPTpPMItPzK-138">
          <mxGeometry width="30" height="30" as="geometry">
            <mxRectangle width="30" height="30" as="alternateBounds" />
          </mxGeometry>
        </mxCell>
        <mxCell id="hbp8-8lJkHPTpPMItPzK-140" value="cancel_deal_day" style="shape=partialRectangle;overflow=hidden;connectable=0;top=1;left=1;bottom=1;right=1;align=center;spacingLeft=6;" vertex="1" parent="hbp8-8lJkHPTpPMItPzK-138">
          <mxGeometry x="30" width="325" height="30" as="geometry">
            <mxRectangle width="325" height="30" as="alternateBounds" />
          </mxGeometry>
        </mxCell>
        <mxCell id="hbp8-8lJkHPTpPMItPzK-141" style="shape=partialRectangle;collapsible=0;dropTarget=0;pointerEvents=0;fillColor=none;points=[[0,0.5],[1,0.5]];portConstraint=eastwest;top=0;left=0;right=0;bottom=0;" vertex="1" parent="hbp8-8lJkHPTpPMItPzK-110">
          <mxGeometry y="330" width="355" height="30" as="geometry" />
        </mxCell>
        <mxCell id="hbp8-8lJkHPTpPMItPzK-142" style="shape=partialRectangle;overflow=hidden;connectable=0;top=1;left=1;bottom=1;right=1;" vertex="1" parent="hbp8-8lJkHPTpPMItPzK-141">
          <mxGeometry width="30" height="30" as="geometry">
            <mxRectangle width="30" height="30" as="alternateBounds" />
          </mxGeometry>
        </mxCell>
        <mxCell id="hbp8-8lJkHPTpPMItPzK-143" value="cancel_deal_type" style="shape=partialRectangle;overflow=hidden;connectable=0;top=1;left=1;bottom=1;right=1;align=center;spacingLeft=6;" vertex="1" parent="hbp8-8lJkHPTpPMItPzK-141">
          <mxGeometry x="30" width="325" height="30" as="geometry">
            <mxRectangle width="325" height="30" as="alternateBounds" />
          </mxGeometry>
        </mxCell>
        <mxCell id="hbp8-8lJkHPTpPMItPzK-144" style="shape=partialRectangle;collapsible=0;dropTarget=0;pointerEvents=0;fillColor=none;points=[[0,0.5],[1,0.5]];portConstraint=eastwest;top=0;left=0;right=0;bottom=0;" vertex="1" parent="hbp8-8lJkHPTpPMItPzK-110">
          <mxGeometry y="360" width="355" height="30" as="geometry" />
        </mxCell>
        <mxCell id="hbp8-8lJkHPTpPMItPzK-145" style="shape=partialRectangle;overflow=hidden;connectable=0;top=1;left=1;bottom=1;right=1;" vertex="1" parent="hbp8-8lJkHPTpPMItPzK-144">
          <mxGeometry width="30" height="30" as="geometry">
            <mxRectangle width="30" height="30" as="alternateBounds" />
          </mxGeometry>
        </mxCell>
        <mxCell id="hbp8-8lJkHPTpPMItPzK-146" value="agent_address" style="shape=partialRectangle;overflow=hidden;connectable=0;top=1;left=1;bottom=1;right=1;align=center;spacingLeft=6;" vertex="1" parent="hbp8-8lJkHPTpPMItPzK-144">
          <mxGeometry x="30" width="325" height="30" as="geometry">
            <mxRectangle width="325" height="30" as="alternateBounds" />
          </mxGeometry>
        </mxCell>
        <mxCell id="hbp8-8lJkHPTpPMItPzK-147" style="shape=partialRectangle;collapsible=0;dropTarget=0;pointerEvents=0;fillColor=none;points=[[0,0.5],[1,0.5]];portConstraint=eastwest;top=0;left=0;right=0;bottom=0;" vertex="1" parent="hbp8-8lJkHPTpPMItPzK-110">
          <mxGeometry y="390" width="355" height="30" as="geometry" />
        </mxCell>
        <mxCell id="hbp8-8lJkHPTpPMItPzK-148" style="shape=partialRectangle;overflow=hidden;connectable=0;top=1;left=1;bottom=1;right=1;" vertex="1" parent="hbp8-8lJkHPTpPMItPzK-147">
          <mxGeometry width="30" height="30" as="geometry">
            <mxRectangle width="30" height="30" as="alternateBounds" />
          </mxGeometry>
        </mxCell>
        <mxCell id="hbp8-8lJkHPTpPMItPzK-149" value="deal_amont" style="shape=partialRectangle;overflow=hidden;connectable=0;top=1;left=1;bottom=1;right=1;align=center;spacingLeft=6;" vertex="1" parent="hbp8-8lJkHPTpPMItPzK-147">
          <mxGeometry x="30" width="325" height="30" as="geometry">
            <mxRectangle width="325" height="30" as="alternateBounds" />
          </mxGeometry>
        </mxCell>
        <mxCell id="hbp8-8lJkHPTpPMItPzK-150" style="shape=partialRectangle;collapsible=0;dropTarget=0;pointerEvents=0;fillColor=none;points=[[0,0.5],[1,0.5]];portConstraint=eastwest;top=0;left=0;right=0;bottom=0;" vertex="1" parent="hbp8-8lJkHPTpPMItPzK-110">
          <mxGeometry y="420" width="355" height="30" as="geometry" />
        </mxCell>
        <mxCell id="hbp8-8lJkHPTpPMItPzK-151" style="shape=partialRectangle;overflow=hidden;connectable=0;top=1;left=1;bottom=1;right=1;" vertex="1" parent="hbp8-8lJkHPTpPMItPzK-150">
          <mxGeometry width="30" height="30" as="geometry">
            <mxRectangle width="30" height="30" as="alternateBounds" />
          </mxGeometry>
        </mxCell>
        <mxCell id="hbp8-8lJkHPTpPMItPzK-152" value="deal_type" style="shape=partialRectangle;overflow=hidden;connectable=0;top=1;left=1;bottom=1;right=1;align=center;spacingLeft=6;" vertex="1" parent="hbp8-8lJkHPTpPMItPzK-150">
          <mxGeometry x="30" width="325" height="30" as="geometry">
            <mxRectangle width="325" height="30" as="alternateBounds" />
          </mxGeometry>
        </mxCell>
        <mxCell id="hbp8-8lJkHPTpPMItPzK-153" style="shape=partialRectangle;collapsible=0;dropTarget=0;pointerEvents=0;fillColor=none;points=[[0,0.5],[1,0.5]];portConstraint=eastwest;top=0;left=0;right=0;bottom=0;" vertex="1" parent="hbp8-8lJkHPTpPMItPzK-110">
          <mxGeometry y="450" width="355" height="30" as="geometry" />
        </mxCell>
        <mxCell id="hbp8-8lJkHPTpPMItPzK-154" style="shape=partialRectangle;overflow=hidden;connectable=0;top=1;left=1;bottom=1;right=1;" vertex="1" parent="hbp8-8lJkHPTpPMItPzK-153">
          <mxGeometry width="30" height="30" as="geometry">
            <mxRectangle width="30" height="30" as="alternateBounds" />
          </mxGeometry>
        </mxCell>
        <mxCell id="hbp8-8lJkHPTpPMItPzK-155" value="deposit " style="shape=partialRectangle;overflow=hidden;connectable=0;top=1;left=1;bottom=1;right=1;align=center;spacingLeft=6;" vertex="1" parent="hbp8-8lJkHPTpPMItPzK-153">
          <mxGeometry x="30" width="325" height="30" as="geometry">
            <mxRectangle width="325" height="30" as="alternateBounds" />
          </mxGeometry>
        </mxCell>
        <mxCell id="hbp8-8lJkHPTpPMItPzK-156" style="shape=partialRectangle;collapsible=0;dropTarget=0;pointerEvents=0;fillColor=none;points=[[0,0.5],[1,0.5]];portConstraint=eastwest;top=0;left=0;right=0;bottom=0;" vertex="1" parent="hbp8-8lJkHPTpPMItPzK-110">
          <mxGeometry y="480" width="355" height="30" as="geometry" />
        </mxCell>
        <mxCell id="hbp8-8lJkHPTpPMItPzK-157" style="shape=partialRectangle;overflow=hidden;connectable=0;top=1;left=1;bottom=1;right=1;" vertex="1" parent="hbp8-8lJkHPTpPMItPzK-156">
          <mxGeometry width="30" height="30" as="geometry">
            <mxRectangle width="30" height="30" as="alternateBounds" />
          </mxGeometry>
        </mxCell>
        <mxCell id="hbp8-8lJkHPTpPMItPzK-158" value="deposit_before" style="shape=partialRectangle;overflow=hidden;connectable=0;top=1;left=1;bottom=1;right=1;align=center;spacingLeft=6;" vertex="1" parent="hbp8-8lJkHPTpPMItPzK-156">
          <mxGeometry x="30" width="325" height="30" as="geometry">
            <mxRectangle width="325" height="30" as="alternateBounds" />
          </mxGeometry>
        </mxCell>
        <mxCell id="hbp8-8lJkHPTpPMItPzK-159" style="shape=partialRectangle;collapsible=0;dropTarget=0;pointerEvents=0;fillColor=none;points=[[0,0.5],[1,0.5]];portConstraint=eastwest;top=0;left=0;right=0;bottom=0;" vertex="1" parent="hbp8-8lJkHPTpPMItPzK-110">
          <mxGeometry y="510" width="355" height="30" as="geometry" />
        </mxCell>
        <mxCell id="hbp8-8lJkHPTpPMItPzK-160" style="shape=partialRectangle;overflow=hidden;connectable=0;top=1;left=1;bottom=1;right=1;" vertex="1" parent="hbp8-8lJkHPTpPMItPzK-159">
          <mxGeometry width="30" height="30" as="geometry">
            <mxRectangle width="30" height="30" as="alternateBounds" />
          </mxGeometry>
        </mxCell>
        <mxCell id="hbp8-8lJkHPTpPMItPzK-161" value="floor" style="shape=partialRectangle;overflow=hidden;connectable=0;top=1;left=1;bottom=1;right=1;align=center;spacingLeft=6;" vertex="1" parent="hbp8-8lJkHPTpPMItPzK-159">
          <mxGeometry x="30" width="325" height="30" as="geometry">
            <mxRectangle width="325" height="30" as="alternateBounds" />
          </mxGeometry>
        </mxCell>
        <mxCell id="hbp8-8lJkHPTpPMItPzK-162" style="shape=partialRectangle;collapsible=0;dropTarget=0;pointerEvents=0;fillColor=none;points=[[0,0.5],[1,0.5]];portConstraint=eastwest;top=0;left=0;right=0;bottom=0;" vertex="1" parent="hbp8-8lJkHPTpPMItPzK-110">
          <mxGeometry y="540" width="355" height="30" as="geometry" />
        </mxCell>
        <mxCell id="hbp8-8lJkHPTpPMItPzK-163" style="shape=partialRectangle;overflow=hidden;connectable=0;top=1;left=1;bottom=1;right=1;" vertex="1" parent="hbp8-8lJkHPTpPMItPzK-162">
          <mxGeometry width="30" height="30" as="geometry">
            <mxRectangle width="30" height="30" as="alternateBounds" />
          </mxGeometry>
        </mxCell>
        <mxCell id="hbp8-8lJkHPTpPMItPzK-164" value="jeon_yong_area" style="shape=partialRectangle;overflow=hidden;connectable=0;top=1;left=1;bottom=1;right=1;align=center;spacingLeft=6;" vertex="1" parent="hbp8-8lJkHPTpPMItPzK-162">
          <mxGeometry x="30" width="325" height="30" as="geometry">
            <mxRectangle width="325" height="30" as="alternateBounds" />
          </mxGeometry>
        </mxCell>
        <mxCell id="hbp8-8lJkHPTpPMItPzK-165" style="shape=partialRectangle;collapsible=0;dropTarget=0;pointerEvents=0;fillColor=none;points=[[0,0.5],[1,0.5]];portConstraint=eastwest;top=0;left=0;right=0;bottom=0;" vertex="1" parent="hbp8-8lJkHPTpPMItPzK-110">
          <mxGeometry y="570" width="355" height="30" as="geometry" />
        </mxCell>
        <mxCell id="hbp8-8lJkHPTpPMItPzK-166" style="shape=partialRectangle;overflow=hidden;connectable=0;top=1;left=1;bottom=1;right=1;" vertex="1" parent="hbp8-8lJkHPTpPMItPzK-165">
          <mxGeometry width="30" height="30" as="geometry">
            <mxRectangle width="30" height="30" as="alternateBounds" />
          </mxGeometry>
        </mxCell>
        <mxCell id="hbp8-8lJkHPTpPMItPzK-167" value="monthly_rent" style="shape=partialRectangle;overflow=hidden;connectable=0;top=1;left=1;bottom=1;right=1;align=center;spacingLeft=6;" vertex="1" parent="hbp8-8lJkHPTpPMItPzK-165">
          <mxGeometry x="30" width="325" height="30" as="geometry">
            <mxRectangle width="325" height="30" as="alternateBounds" />
          </mxGeometry>
        </mxCell>
        <mxCell id="hbp8-8lJkHPTpPMItPzK-168" style="shape=partialRectangle;collapsible=0;dropTarget=0;pointerEvents=0;fillColor=none;points=[[0,0.5],[1,0.5]];portConstraint=eastwest;top=0;left=0;right=0;bottom=0;" vertex="1" parent="hbp8-8lJkHPTpPMItPzK-110">
          <mxGeometry y="600" width="355" height="30" as="geometry" />
        </mxCell>
        <mxCell id="hbp8-8lJkHPTpPMItPzK-169" style="shape=partialRectangle;overflow=hidden;connectable=0;top=1;left=1;bottom=1;right=1;" vertex="1" parent="hbp8-8lJkHPTpPMItPzK-168">
          <mxGeometry width="30" height="30" as="geometry">
            <mxRectangle width="30" height="30" as="alternateBounds" />
          </mxGeometry>
        </mxCell>
        <mxCell id="hbp8-8lJkHPTpPMItPzK-170" value="monthly_rent_before" style="shape=partialRectangle;overflow=hidden;connectable=0;top=1;left=1;bottom=1;right=1;align=center;spacingLeft=6;" vertex="1" parent="hbp8-8lJkHPTpPMItPzK-168">
          <mxGeometry x="30" width="325" height="30" as="geometry">
            <mxRectangle width="325" height="30" as="alternateBounds" />
          </mxGeometry>
        </mxCell>
        <mxCell id="hbp8-8lJkHPTpPMItPzK-171" style="shape=partialRectangle;collapsible=0;dropTarget=0;pointerEvents=0;fillColor=none;points=[[0,0.5],[1,0.5]];portConstraint=eastwest;top=0;left=0;right=0;bottom=0;" vertex="1" parent="hbp8-8lJkHPTpPMItPzK-110">
          <mxGeometry y="630" width="355" height="30" as="geometry" />
        </mxCell>
        <mxCell id="hbp8-8lJkHPTpPMItPzK-172" style="shape=partialRectangle;overflow=hidden;connectable=0;top=1;left=1;bottom=1;right=1;" vertex="1" parent="hbp8-8lJkHPTpPMItPzK-171">
          <mxGeometry width="30" height="30" as="geometry">
            <mxRectangle width="30" height="30" as="alternateBounds" />
          </mxGeometry>
        </mxCell>
        <mxCell id="hbp8-8lJkHPTpPMItPzK-173" value="name" style="shape=partialRectangle;overflow=hidden;connectable=0;top=1;left=1;bottom=1;right=1;align=center;spacingLeft=6;" vertex="1" parent="hbp8-8lJkHPTpPMItPzK-171">
          <mxGeometry x="30" width="325" height="30" as="geometry">
            <mxRectangle width="325" height="30" as="alternateBounds" />
          </mxGeometry>
        </mxCell>
        <mxCell id="hbp8-8lJkHPTpPMItPzK-174" style="shape=partialRectangle;collapsible=0;dropTarget=0;pointerEvents=0;fillColor=none;points=[[0,0.5],[1,0.5]];portConstraint=eastwest;top=0;left=0;right=0;bottom=0;" vertex="1" parent="hbp8-8lJkHPTpPMItPzK-110">
          <mxGeometry y="660" width="355" height="30" as="geometry" />
        </mxCell>
        <mxCell id="hbp8-8lJkHPTpPMItPzK-175" style="shape=partialRectangle;overflow=hidden;connectable=0;top=1;left=1;bottom=1;right=1;" vertex="1" parent="hbp8-8lJkHPTpPMItPzK-174">
          <mxGeometry width="30" height="30" as="geometry">
            <mxRectangle width="30" height="30" as="alternateBounds" />
          </mxGeometry>
        </mxCell>
        <mxCell id="hbp8-8lJkHPTpPMItPzK-176" value="parcel_number" style="shape=partialRectangle;overflow=hidden;connectable=0;top=1;left=1;bottom=1;right=1;align=center;spacingLeft=6;" vertex="1" parent="hbp8-8lJkHPTpPMItPzK-174">
          <mxGeometry x="30" width="325" height="30" as="geometry">
            <mxRectangle width="325" height="30" as="alternateBounds" />
          </mxGeometry>
        </mxCell>
        <mxCell id="hbp8-8lJkHPTpPMItPzK-177" style="shape=partialRectangle;collapsible=0;dropTarget=0;pointerEvents=0;fillColor=none;points=[[0,0.5],[1,0.5]];portConstraint=eastwest;top=0;left=0;right=0;bottom=0;" vertex="1" parent="hbp8-8lJkHPTpPMItPzK-110">
          <mxGeometry y="690" width="355" height="30" as="geometry" />
        </mxCell>
        <mxCell id="hbp8-8lJkHPTpPMItPzK-178" style="shape=partialRectangle;overflow=hidden;connectable=0;top=1;left=1;bottom=1;right=1;" vertex="1" parent="hbp8-8lJkHPTpPMItPzK-177">
          <mxGeometry width="30" height="30" as="geometry">
            <mxRectangle width="30" height="30" as="alternateBounds" />
          </mxGeometry>
        </mxCell>
        <mxCell id="hbp8-8lJkHPTpPMItPzK-179" value="beop_jeong_dong_code" style="shape=partialRectangle;overflow=hidden;connectable=0;top=1;left=1;bottom=1;right=1;align=center;spacingLeft=6;" vertex="1" parent="hbp8-8lJkHPTpPMItPzK-177">
          <mxGeometry x="30" width="325" height="30" as="geometry">
            <mxRectangle width="325" height="30" as="alternateBounds" />
          </mxGeometry>
        </mxCell>
        <mxCell id="hbp8-8lJkHPTpPMItPzK-180" style="shape=partialRectangle;collapsible=0;dropTarget=0;pointerEvents=0;fillColor=none;points=[[0,0.5],[1,0.5]];portConstraint=eastwest;top=0;left=0;right=0;bottom=0;" vertex="1" parent="hbp8-8lJkHPTpPMItPzK-110">
          <mxGeometry y="720" width="355" height="30" as="geometry" />
        </mxCell>
        <mxCell id="hbp8-8lJkHPTpPMItPzK-181" style="shape=partialRectangle;overflow=hidden;connectable=0;top=1;left=1;bottom=1;right=1;" vertex="1" parent="hbp8-8lJkHPTpPMItPzK-180">
          <mxGeometry width="30" height="30" as="geometry">
            <mxRectangle width="30" height="30" as="alternateBounds" />
          </mxGeometry>
        </mxCell>
        <mxCell id="hbp8-8lJkHPTpPMItPzK-182" value="si_gun_gu" style="shape=partialRectangle;overflow=hidden;connectable=0;top=1;left=1;bottom=1;right=1;align=center;spacingLeft=6;" vertex="1" parent="hbp8-8lJkHPTpPMItPzK-180">
          <mxGeometry x="30" width="325" height="30" as="geometry">
            <mxRectangle width="325" height="30" as="alternateBounds" />
          </mxGeometry>
        </mxCell>
        <mxCell id="hbp8-8lJkHPTpPMItPzK-183" style="shape=partialRectangle;collapsible=0;dropTarget=0;pointerEvents=0;fillColor=none;points=[[0,0.5],[1,0.5]];portConstraint=eastwest;top=0;left=0;right=0;bottom=0;" vertex="1" parent="hbp8-8lJkHPTpPMItPzK-110">
          <mxGeometry y="750" width="355" height="30" as="geometry" />
        </mxCell>
        <mxCell id="hbp8-8lJkHPTpPMItPzK-184" style="shape=partialRectangle;overflow=hidden;connectable=0;top=1;left=1;bottom=1;right=1;" vertex="1" parent="hbp8-8lJkHPTpPMItPzK-183">
          <mxGeometry width="30" height="30" as="geometry">
            <mxRectangle width="30" height="30" as="alternateBounds" />
          </mxGeometry>
        </mxCell>
        <mxCell id="hbp8-8lJkHPTpPMItPzK-185" value="real_estate_type" style="shape=partialRectangle;overflow=hidden;connectable=0;top=1;left=1;bottom=1;right=1;align=center;spacingLeft=6;" vertex="1" parent="hbp8-8lJkHPTpPMItPzK-183">
          <mxGeometry x="30" width="325" height="30" as="geometry">
            <mxRectangle width="325" height="30" as="alternateBounds" />
          </mxGeometry>
        </mxCell>
        <mxCell id="hbp8-8lJkHPTpPMItPzK-186" style="shape=partialRectangle;collapsible=0;dropTarget=0;pointerEvents=0;fillColor=none;points=[[0,0.5],[1,0.5]];portConstraint=eastwest;top=0;left=0;right=0;bottom=0;" vertex="1" parent="hbp8-8lJkHPTpPMItPzK-110">
          <mxGeometry y="780" width="355" height="30" as="geometry" />
        </mxCell>
        <mxCell id="hbp8-8lJkHPTpPMItPzK-187" style="shape=partialRectangle;overflow=hidden;connectable=0;top=1;left=1;bottom=1;right=1;" vertex="1" parent="hbp8-8lJkHPTpPMItPzK-186">
          <mxGeometry width="30" height="30" as="geometry">
            <mxRectangle width="30" height="30" as="alternateBounds" />
          </mxGeometry>
        </mxCell>
        <mxCell id="hbp8-8lJkHPTpPMItPzK-188" value="created_at" style="shape=partialRectangle;overflow=hidden;connectable=0;top=1;left=1;bottom=1;right=1;align=center;spacingLeft=6;" vertex="1" parent="hbp8-8lJkHPTpPMItPzK-186">
          <mxGeometry x="30" width="325" height="30" as="geometry">
            <mxRectangle width="325" height="30" as="alternateBounds" />
          </mxGeometry>
        </mxCell>
        <mxCell id="hbp8-8lJkHPTpPMItPzK-189" value="&lt;span style=&quot;text-align: left; text-wrap: nowrap;&quot;&gt;varchar(56) / 법정동-공동&lt;/span&gt;" style="text;html=1;align=center;verticalAlign=middle;whiteSpace=wrap;rounded=0;" vertex="1" parent="1">
          <mxGeometry x="410" y="100" width="120" height="30" as="geometry" />
        </mxCell>
        <mxCell id="hbp8-8lJkHPTpPMItPzK-190" value="&lt;span style=&quot;text-align: left; text-wrap: nowrap;&quot;&gt;varchar(12) / 갱신요구권사용-공동&lt;/span&gt;" style="text;html=1;align=center;verticalAlign=middle;whiteSpace=wrap;rounded=0;" vertex="1" parent="1">
          <mxGeometry x="460" y="130" width="60" height="30" as="geometry" />
        </mxCell>
        <mxCell id="hbp8-8lJkHPTpPMItPzK-191" value="&lt;span style=&quot;text-align: left; text-wrap: nowrap;&quot;&gt;&amp;nbsp;smallint 건축년도-공동&lt;/span&gt;" style="text;html=1;align=center;verticalAlign=middle;whiteSpace=wrap;rounded=0;" vertex="1" parent="1">
          <mxGeometry x="430" y="160" width="60" height="30" as="geometry" />
        </mxCell>
        <mxCell id="hbp8-8lJkHPTpPMItPzK-192" value="&lt;span style=&quot;text-align: left; text-wrap: nowrap;&quot;&gt;varchar(12) 계약구분-공동&lt;/span&gt;" style="text;html=1;align=center;verticalAlign=middle;whiteSpace=wrap;rounded=0;" vertex="1" parent="1">
          <mxGeometry x="440" y="190" width="60" height="30" as="geometry" />
        </mxCell>
        <mxCell id="hbp8-8lJkHPTpPMItPzK-193" value="&lt;span style=&quot;text-align: left; text-wrap: nowrap;&quot;&gt;vachar(22) 계약기간-공동&lt;/span&gt;" style="text;html=1;align=center;verticalAlign=middle;whiteSpace=wrap;rounded=0;" vertex="1" parent="1">
          <mxGeometry x="440" y="220" width="60" height="30" as="geometry" />
        </mxCell>
        <mxCell id="hbp8-8lJkHPTpPMItPzK-194" value="&lt;span style=&quot;text-align: left; text-wrap: nowrap;&quot;&gt;smallint 년-공동&lt;/span&gt;" style="text;html=1;align=center;verticalAlign=middle;whiteSpace=wrap;rounded=0;" vertex="1" parent="1">
          <mxGeometry x="420" y="250" width="60" height="30" as="geometry" />
        </mxCell>
        <mxCell id="hbp8-8lJkHPTpPMItPzK-195" value="&lt;span style=&quot;text-align: left; text-wrap: nowrap;&quot;&gt;smallint 월-공동&lt;/span&gt;" style="text;html=1;align=center;verticalAlign=middle;whiteSpace=wrap;rounded=0;" vertex="1" parent="1">
          <mxGeometry x="420" y="280" width="60" height="30" as="geometry" />
        </mxCell>
        <mxCell id="hbp8-8lJkHPTpPMItPzK-196" value="&lt;span style=&quot;text-align: left; text-wrap: nowrap;&quot;&gt;smallint 일-공동&lt;/span&gt;" style="text;html=1;align=center;verticalAlign=middle;whiteSpace=wrap;rounded=0;" vertex="1" parent="1">
          <mxGeometry x="420" y="310" width="60" height="30" as="geometry" />
        </mxCell>
        <mxCell id="hbp8-8lJkHPTpPMItPzK-197" value="&lt;span style=&quot;text-align: left; text-wrap: nowrap;&quot;&gt;varchar(16) 해제사유발생일-아파트매매&lt;/span&gt;" style="text;html=1;align=center;verticalAlign=middle;whiteSpace=wrap;rounded=0;" vertex="1" parent="1">
          <mxGeometry x="470" y="340" width="60" height="30" as="geometry" />
        </mxCell>
        <mxCell id="hbp8-8lJkHPTpPMItPzK-198" value="&lt;span style=&quot;text-align: left; text-wrap: nowrap;&quot;&gt;varchar(2) 해제여부-아파트매매&lt;/span&gt;" style="text;html=1;align=center;verticalAlign=middle;whiteSpace=wrap;rounded=0;" vertex="1" parent="1">
          <mxGeometry x="450" y="370" width="60" height="30" as="geometry" />
        </mxCell>
        <mxCell id="hbp8-8lJkHPTpPMItPzK-199" value="&lt;span style=&quot;text-align: left; text-wrap: nowrap;&quot;&gt;varchar(158) 중개사소재지-아파트매매&lt;/span&gt;" style="text;html=1;align=center;verticalAlign=middle;whiteSpace=wrap;rounded=0;" vertex="1" parent="1">
          <mxGeometry x="470" y="400" width="60" height="30" as="geometry" />
        </mxCell>
        <mxCell id="hbp8-8lJkHPTpPMItPzK-200" value="&lt;span style=&quot;text-align: left; text-wrap: nowrap;&quot;&gt;decimal 거래금액-아파트매매&lt;/span&gt;" style="text;html=1;align=center;verticalAlign=middle;whiteSpace=wrap;rounded=0;" vertex="1" parent="1">
          <mxGeometry x="450" y="430" width="60" height="30" as="geometry" />
        </mxCell>
        <mxCell id="hbp8-8lJkHPTpPMItPzK-201" value="&lt;span style=&quot;text-align: left; text-wrap: nowrap;&quot;&gt;varchar(24) 거래유형-아파트매매&lt;/span&gt;" style="text;html=1;align=center;verticalAlign=middle;whiteSpace=wrap;rounded=0;" vertex="1" parent="1">
          <mxGeometry x="460" y="460" width="60" height="30" as="geometry" />
        </mxCell>
        <mxCell id="hbp8-8lJkHPTpPMItPzK-202" value="&lt;span style=&quot;text-align: left; text-wrap: nowrap;&quot;&gt;decimal 보증금액-전월세&lt;/span&gt;" style="text;html=1;align=center;verticalAlign=middle;whiteSpace=wrap;rounded=0;" vertex="1" parent="1">
          <mxGeometry x="440" y="490" width="60" height="30" as="geometry" />
        </mxCell>
        <mxCell id="hbp8-8lJkHPTpPMItPzK-203" value="&lt;span style=&quot;text-align: left; text-wrap: nowrap;&quot;&gt;decimal 종전계약보증금-전월세&lt;/span&gt;" style="text;html=1;align=center;verticalAlign=middle;whiteSpace=wrap;rounded=0;" vertex="1" parent="1">
          <mxGeometry x="450" y="520" width="60" height="30" as="geometry" />
        </mxCell>
        <mxCell id="hbp8-8lJkHPTpPMItPzK-204" value="&lt;span style=&quot;text-align: left; text-wrap: nowrap;&quot;&gt;varchar(6) 층-단독다가구 제외 전부&lt;/span&gt;" style="text;html=1;align=center;verticalAlign=middle;whiteSpace=wrap;rounded=0;" vertex="1" parent="1">
          <mxGeometry x="460" y="550" width="60" height="30" as="geometry" />
        </mxCell>
        <mxCell id="hbp8-8lJkHPTpPMItPzK-205" value="&lt;span style=&quot;text-align: left; text-wrap: nowrap;&quot;&gt;varchar(18) 전용면적, 계약면적-공동 -&amp;gt; 분리필요 계약면적은 단독다가구&lt;/span&gt;" style="text;html=1;align=center;verticalAlign=middle;whiteSpace=wrap;rounded=0;" vertex="1" parent="1">
          <mxGeometry x="550" y="580" width="60" height="30" as="geometry" />
        </mxCell>
        <mxCell id="hbp8-8lJkHPTpPMItPzK-206" value="&lt;span style=&quot;text-align: left; text-wrap: nowrap;&quot;&gt;decimal 월세-전월세&lt;/span&gt;" style="text;html=1;align=center;verticalAlign=middle;whiteSpace=wrap;rounded=0;" vertex="1" parent="1">
          <mxGeometry x="430" y="610" width="60" height="30" as="geometry" />
        </mxCell>
        <mxCell id="hbp8-8lJkHPTpPMItPzK-207" value="&lt;span style=&quot;text-align: left; text-wrap: nowrap;&quot;&gt;&amp;nbsp;decimal 종전계약월세-전월세&lt;/span&gt;" style="text;html=1;align=center;verticalAlign=middle;whiteSpace=wrap;rounded=0;" vertex="1" parent="1">
          <mxGeometry x="450" y="640" width="60" height="30" as="geometry" />
        </mxCell>
        <mxCell id="hbp8-8lJkHPTpPMItPzK-208" value="&lt;span style=&quot;text-align: left; text-wrap: nowrap;&quot;&gt;varchar(158) 아파트, 연립다세대, 단지-단독다가구 제외 전부 -&amp;gt; 이름으로 통일&lt;/span&gt;" style="text;html=1;align=center;verticalAlign=middle;whiteSpace=wrap;rounded=0;" vertex="1" parent="1">
          <mxGeometry x="560" y="670" width="60" height="30" as="geometry" />
        </mxCell>
        <mxCell id="hbp8-8lJkHPTpPMItPzK-209" value="&lt;span style=&quot;text-align: left; text-wrap: nowrap;&quot;&gt;varchar(26) 지번-단독 다가구 제외 전부&lt;/span&gt;" style="text;html=1;align=center;verticalAlign=middle;whiteSpace=wrap;rounded=0;" vertex="1" parent="1">
          <mxGeometry x="470" y="700" width="60" height="30" as="geometry" />
        </mxCell>
        <mxCell id="hbp8-8lJkHPTpPMItPzK-210" value="&lt;span style=&quot;text-align: left; text-wrap: nowrap;&quot;&gt;&amp;nbsp;varchar(10) 지역코드-공동&lt;/span&gt;" style="text;html=1;align=center;verticalAlign=middle;whiteSpace=wrap;rounded=0;" vertex="1" parent="1">
          <mxGeometry x="440" y="730" width="60" height="30" as="geometry" />
        </mxCell>
        <mxCell id="hbp8-8lJkHPTpPMItPzK-211" value="&lt;span style=&quot;text-align: left; text-wrap: nowrap;&quot;&gt;varchar(42) 시군구-오피스텔 -&amp;gt; 없어도 될듯&lt;/span&gt;" style="text;html=1;align=center;verticalAlign=middle;whiteSpace=wrap;rounded=0;" vertex="1" parent="1">
          <mxGeometry x="480" y="760" width="60" height="30" as="geometry" />
        </mxCell>
        <mxCell id="hbp8-8lJkHPTpPMItPzK-212" value="&lt;span style=&quot;text-align: left; text-wrap: nowrap;&quot;&gt;varchar(36) 부동산 종류-공동&lt;/span&gt;" style="text;html=1;align=center;verticalAlign=middle;whiteSpace=wrap;rounded=0;" vertex="1" parent="1">
          <mxGeometry x="450" y="790" width="60" height="30" as="geometry" />
        </mxCell>
        <mxCell id="hbp8-8lJkHPTpPMItPzK-213" value="&lt;span style=&quot;text-align: left; text-wrap: nowrap;&quot;&gt;datetime(6) 공동&lt;/span&gt;" style="text;html=1;align=center;verticalAlign=middle;whiteSpace=wrap;rounded=0;" vertex="1" parent="1">
          <mxGeometry x="420" y="820" width="60" height="30" as="geometry" />
        </mxCell>
        <mxCell id="hbp8-8lJkHPTpPMItPzK-214" value="&lt;span style=&quot;text-wrap: nowrap;&quot;&gt;bigint(20)&lt;/span&gt;" style="text;html=1;align=left;verticalAlign=middle;whiteSpace=wrap;rounded=0;" vertex="1" parent="1">
          <mxGeometry x="410" y="70" width="120" height="30" as="geometry" />
        </mxCell>
      </root>
    </mxGraphModel>
  </diagram>
</mxfile>
